<?xml version="1.0" encoding="UTF-8"?>
<svg id="_レイヤー_2" data-name="レイヤー 2" xmlns="http://www.w3.org/2000/svg" viewBox="0 0 109.93 20.18">
  <defs>
    <style>
      .cls-1 {
        fill: #333;
      }
    </style>
  </defs>
  <g id="_レイヤー_1-2" data-name="レイヤー 1">
    <g>
      <g>
        <path class="cls-1" d="M0,5.94v1.07s.89-.51,2.15-1.92"/>
        <path class="cls-1" d="M8.05,5.75H3.2v1h4.84v-1Zm0-1.85H3.22v1h4.84v-1h0ZM.01,5.94C2.02,4.43,2.74,1.96,2.74,1.96H.37v-.9H3.02c.07,0,.25-.88,.25-.88,0,0,.39-.01,.95,0l-.21,.88h5.64v.92S3.75,1.98,3.75,1.98c0,.12-.39,1.11-.39,1.11,0,0,3.51-.01,4.69,0s1.01,.95,1.01,.95c0,0-.03,3.28,.04,4.54,.06,1.12-1.05,1.03-1.05,1.03h-1.39l-.07-.92s.68,.01,1.34-.01c.14,0,.14-.07,.14-.07v-1.01H3.25v2h-1.1s.01-3.77,0-4.51"/>
        <path class="cls-1" d="M11.5,1.52V6.62s.65,.08,1.06,.06c1.37-.06-.04-2.84-.49-3.07,.35-.54,.65-1.07,.78-2.07-.37-.02-1.35-.01-1.35-.01m2.54-.78c-.16,.96-.62,2.23-1.08,2.78,1.77,2.24,.84,3.36,.51,3.72-.21,.23-1.76,.41-1.98,.26v2.09h-1.05V.74s2.36-.03,3.6,0"/>
        <path class="cls-1" d="M18.34,1.63h-2.92v1.04h2.92V1.63Zm0,1.87h-2.92v1.04h2.92v-1.04Zm-.05-2.76c1.11,.04,1,.84,1,.84v3.85s-2.17,0-2.46,0c-.02,.2,.92,1.77,1.09,1.77s.8-1.12,.8-1.12c0,0,.13-.01,1.01,0-.42,1.03-1.09,1.45-1.27,1.7-.16,.15,1.39,1.01,1.39,1.01v.97c-2.79-.99-3.89-4.27-3.89-4.27h-.53s.02,2.59,0,3.03c.57-.07,1.31-.15,1.31-.15,0,0-.04,.18-.02,.71-.73,.37-3.3,.54-3.3,.54v-.86l.8-.07V.74s3.31-.03,4.07,0"/>
        <path class="cls-1" d="M5.24,11.51s-.17-.47-.43-.02c-.27,.45-1.91,1.74-2.41,1.93-.21,.08,5.27-.01,5.27-.01,0,0-2.06-1.34-2.43-1.89m-1.15-.54c.5-.6,1.3-.72,1.82,0,1.61,1.66,3.94,2.27,3.94,2.27v.89c-.66-.05-1.72-.53-1.72-.53v.81H1.96v-.86c-1.03,.48-1.64,.5-1.64,.5v-.93c.47,.09,2.62-.95,3.77-2.16"/>
        <path class="cls-1" d="M.6,15.47v.93H2.74l-.89,2.47H.75v.96s6.3-.17,7.2-.57l.29,.62h1.27l-1.42-2.85h-1.06l.56,1.33s-3.18,.57-4.67,.45c.29-.75,.9-2.37,.9-2.37h5.78v-.97H.6Z"/>
        <path class="cls-1" d="M12.27,10.57v1.67h-1.61v.95h2.62s-.32,2.4-2.91,3.43v1.01s.58-.08,1.9-1.16v3.45h1.01v-3.72l1.74,.88v-.97s-1.39-.55-1.62-.86c.11-.24,.59-.84,.9-2,.04-.15,.22-1-.46-.99-.67,0-.57,0-.57,0v-1.71h-1Z"/>
      </g>
      <polygon class="cls-1" points="16.77 10.55 16.77 13.08 14.86 13.08 14.86 14 16.78 14 16.78 18.8 14.11 18.8 14.11 19.77 20.07 19.77 20.07 18.81 17.85 18.81 17.85 14.03 19.77 14.03 19.77 13.1 17.86 13.1 17.86 10.55 16.77 10.55"/>
      <g>
        <path class="cls-1" d="M76.67,.11s-6.37,1.32-8.61,1.44V18.83h8.83v-2.4h-6.09v-5.55h5.97v-2.28h-5.92V3.51s5.05-.86,5.86-1.44l-.04-1.96Z"/>
        <path class="cls-1" d="M78.07,.41V20.13h2.71V2.62h4.6V15.68s0,.33-.41,.4c-.59,.11-2.92,.02-2.92,.02v2.56h3.06s2.63-.46,2.65-3.2c.02-3.26,0-12.66,0-12.66,0,0,.51-2.39-2.37-2.43-2.88-.04-7.3,.04-7.3,.04"/>
      </g>
      <rect class="cls-1" x="103.27" y="1.06" width="2.36" height="14.17"/>
      <g>
        <path class="cls-1" d="M100.09,2.43h-7.5v1.4h7.5v-1.4Zm.59,5.16c1.86,.28,1.61,1.93,1.61,1.93,0,0,.08,4.75,0,7.15s-1.91,2.26-1.91,2.26h-1l-.12-2.19,.57,.04,.27-.21-.03-7.07-1.26,.06v10.49h-2.13V9.57h-1.11v9.34h-2.35V7.56h3.5v-1.9h-4.13s-.08,3.04,0,7.01c.08,3.96-3.5,7.39-3.5,7.39,0,0,.04-.87,0-3.54,1.22-1.64,.95-3.06,.95-3.06V.3h10.08c2.01,0,2.13,1.74,2.13,1.74v3.63h-3.49v1.92"/>
        <path class="cls-1" d="M98.6,7.59s-.48-.04,2.08,0"/>
        <path class="cls-1" d="M107.43,.23V16.88s.13,.61-.71,.73c-.84,.12-2.99,0-2.99,0v2.37s3.12-.1,3.12-.1c0,0,2.8-.06,3.08-3.34l-.15-16.23-2.35-.07Z"/>
      </g>
      <polygon class="cls-1" points="44.98 .76 44.98 2.95 47.51 2.95 47.51 7.29 45.26 7.29 45.26 9.45 47.45 9.45 47.45 15.2 44.98 15.48 44.98 17.88 47.5 17.41 49.59 16.94 51.68 16.34 51.68 14.4 49.69 14.8 49.69 9.45 51.2 9.45 51.2 7.28 49.64 7.28 49.64 2.95 51.23 2.95 51.23 .76 44.98 .76"/>
      <path class="cls-1" d="M57.41,.02V1.39h-5.64V3.44h3.36l-1.38,3.06s-.64,.04-1.71-.02c0,.21,.03,2.26,.03,2.26,0,0,5.12,.25,10.96-.83l.51,1.12h2.67l-2.52-4.93h-2.35l.78,1.85s-3.44,.64-5.92,.48l1.39-3.03h8.19V1.3h-5.8V0l-2.54,.02Z"/>
      <rect class="cls-1" x="56.84" y="9.38" width="2.29" height="10.63"/>
      <g>
        <path class="cls-1" d="M53.06,9.39s0,4.03,0,6.02c0,1.82-.89,2.37-3.39,2.82v1.94s5.78-.13,5.74-4.79c-.04-4.65,0-5.97,0-5.97l-2.35-.04Z"/>
        <path class="cls-1" d="M66.15,20.02v-2.78h-2.06s-.97,.1-.95-.77c.02-.86-.04-7.07-.04-7.07h-2.26v7.68s-.1,2.58,2.57,2.94"/>
        <path class="cls-1" d="M60.83,17.08s-.08,2.58,2.59,2.94c2.13-.05,2.74,0,2.74,0"/>
      </g>
      <rect class="cls-1" x="30.04" y=".37" width="13.1" height="2.01"/>
      <g>
        <path class="cls-1" d="M39.86,5.25h-6.63v2.13h6.63v-2.13Zm2.4-.45v4.45h-11.56V3.32h9.58c1.16,0,1.99,.59,1.99,1.47"/>
        <path class="cls-1" d="M35.58,12.16h-3.02v1.92h3.02v-1.92Zm5.12,0h-3.02v1.92h3.02v-1.92Zm-5.12,3.64h-3.02v1.92h3.02v-1.92Zm5.12,0h-3.02v1.92h3.02v-1.92Zm2.55-4.13v8.32h-13.09V10.18h11.11c1.14,0,1.98,.59,1.98,1.48"/>
        <path class="cls-1" d="M25.02,.21V2.99h-2.78v2.31s2.96,.01,4.17,0c-.28,2.02-2.12,4.65-4.16,5.75,.04,1.39,0,2.81,0,2.81,0,0,1.96-1.06,2.76-1.99-.07,.97,0,8.14,0,8.14h2.62V11.29l1.85,1.37v-2.76l-1.77-1.28s.48-1.03,.88-2.03c.28-.7,.46-1.35,.59-1.78,.32-1.07-.04-1.8-.77-1.78-.52,0-.95,0-.95,0V.18h-2.45"/>
      </g>
    </g>
  </g>
</svg>